# xmcd
#
# Track frame offsets: 
#        150
#        18901
#        40814
#        64297
#        77043
#        98359
#        115436
#        133036
#        150845
#        166346
#        182687
#
# Disc length: 2696 seconds
#
# Revision: 0
# Processed by: cddbd v1.5.2PL0 Copyright (c) Steve Scherf et al.
# Submitted via: ExactAudioCopy v1.1
#
DISCID=7e0a860b
DTITLE=Chicken Diamond - II
DYEAR=2012
DGENRE=Blues
TTITLE0=Disappear
TTITLE1=Gold Rush
TTITLE2=31 Highway
TTITLE3=Middle Class
TTITLE4=Get Out of this Town
TTITLE5=Spitting in your Face
TTITLE6=The Thrill is Gone
TTITLE7=Leaving in the Morning
TTITLE8=Rock'n Roll People
TTITLE9=Country Song
TTITLE10=High Low Blues
EXTD=
EXTT0=
EXTT1=
EXTT2=
EXTT3=
EXTT4=
EXTT5=
EXTT6=
EXTT7=
EXTT8=
EXTT9=
EXTT10=
PLAYORDER=
